# xmcd
# Track frame offsets:
# 150
# 13144
# 21684
# 33933
# 44069
# 56443
# 67745
# 80345
# 89077
# 99466
# 108581
# 117628
# 131909
# 146020
# 155585
# 166350
# 176726
# 187775
# 195648
# 208069
#
# Disc length: 2943 seconds
# Revision: 0
# Processed by: cddbd v1.5.2PL0 Copyright (c) Steve Scherf et al.
# Submitted via: VisiTrax 2.11.3.279 - For more info visit www.synapsa.com
#
DISCID=270b7d14
DTITLE=Various (19560's-1960's) Female Blues and R&B and Soul and Jazz and Pop Artist
DTITLE=s - Sixties Girls: 60 Original Recordings: CD3 0f 3: *ReMastered Track
DTITLE=s
DYEAR=2014
DGENRE=Pop
TTITLE0=Brigitte Bardot - Sidonie*
TTITLE1=Nancy Sinatra - Cuff Links And A Tie Clip*
TTITLE2=Dionne Warwick - I Smiled Yesterday*
TTITLE3=Carole King - School Bells Are Ringing*
TTITLE4=Mary Wells - You Beat Me To The Punch*
TTITLE5=Clodagh Rodgers - Believe Me, I'm No Fool*
TTITLE6=Etta James - Next Door To The Blues*
TTITLE7=Helen Shapiro - Let's Talk About Love*
TTITLE8=Erma Franklin - Don't Wait Too Long*
TTITLE9=Shelley Fabares - Funny Face*
TTITLE10=Barbara George - Hurted*
TTITLE11=Esther Phillips - After Loving You*
TTITLE12=Françoise Hardy - Tous Les Garçons Et Les Filles*
TTITLE13=Connie Stevens - Why'd You Wanna To Make Me Cry*
TTITLE14=Maxine Brown - Now That You've Gone*
TTITLE15=Linda Scott - I've Told Every Little Star*
TTITLE16=Dee Dee Sharp - Ride*
TTITLE17=Glenda Collins - Head Over Heels In Love*
TTITLE18=Sugar Pie DeSanto - Can't Let You Go*
TTITLE19=Valerie Mountain - Some People*
EXTD=Compilation and ReMastering: Not Now Music: 2014
EXTT0=
EXTT1=
EXTT2=
EXTT3=
EXTT4=
EXTT5=
EXTT6=
EXTT7=
EXTT8=
EXTT9=
EXTT10=
EXTT11=
EXTT12=
EXTT13=
EXTT14=
EXTT15=
EXTT16=
EXTT17=
EXTT18=
EXTT19=
PLAYORDER=
